# https://github.com/mikedh/trimesh
v -1.00000000 -0.50000000 -0.50000000
v -1.00000000 -0.50000000 0.50000000
v -1.00000000 0.50000000 -0.50000000
v -1.00000000 0.50000000 0.50000000
v 1.00000000 -0.50000000 -0.50000000
v 1.00000000 -0.50000000 0.50000000
v 1.00000000 0.50000000 -0.50000000
v 1.00000000 0.50000000 0.50000000
v 1.30000000 0.00000000 -0.30000000
v 1.60000000 0.00000000 -0.30000000
v 1.60000000 0.00000000 0.30000000
v 1.30000000 0.00000000 0.30000000
v 1.55980762 0.15000000 -0.30000000
v 1.55980762 0.15000000 0.30000000
v 1.45000000 0.25980762 -0.30000000
v 1.45000000 0.25980762 0.30000000
v 1.30000000 0.30000000 -0.30000000
v 1.30000000 0.30000000 0.30000000
v 1.15000000 0.25980762 -0.30000000
v 1.15000000 0.25980762 0.30000000
v 1.04019238 0.15000000 -0.30000000
v 1.04019238 0.15000000 0.30000000
v 1.00000000 0.00000000 -0.30000000
v 1.00000000 0.00000000 0.30000000
v 1.04019238 -0.15000000 -0.30000000
v 1.04019238 -0.15000000 0.30000000
v 1.15000000 -0.25980762 -0.30000000
v 1.15000000 -0.25980762 0.30000000
v 1.30000000 -0.30000000 -0.30000000
v 1.30000000 -0.30000000 0.30000000
v 1.45000000 -0.25980762 -0.30000000
v 1.45000000 -0.25980762 0.30000000
v 1.55980762 -0.15000000 -0.30000000
v 1.55980762 -0.15000000 0.30000000
v -1.75000000 -0.15000000 -0.15000000
v -1.75000000 -0.15000000 0.15000000
v -1.75000000 0.15000000 -0.15000000
v -1.75000000 0.15000000 0.15000000
v -1.25000000 -0.15000000 -0.15000000
v -1.25000000 -0.15000000 0.15000000
v -1.25000000 0.15000000 -0.15000000
v -1.25000000 0.15000000 0.15000000
v -1.85000000 -0.50000000 -0.50000000
v -1.85000000 -0.50000000 0.50000000
v -1.85000000 0.50000000 -0.50000000
v -1.85000000 0.50000000 0.50000000
v -1.75000000 -0.50000000 -0.50000000
v -1.75000000 -0.50000000 0.50000000
v -1.75000000 0.50000000 -0.50000000
v -1.75000000 0.50000000 0.50000000
f 2 4 1
f 5 2 1
f 1 4 3
f 3 5 1
f 2 8 4
f 6 2 5
f 6 8 2
f 4 8 3
f 7 5 3
f 3 8 7
f 7 6 5
f 8 6 7
f 10 9 13
f 10 13 11
f 11 13 14
f 11 14 12
f 13 9 15
f 13 15 14
f 14 15 16
f 14 16 12
f 15 9 17
f 15 17 16
f 16 17 18
f 16 18 12
f 17 9 19
f 17 19 18
f 18 19 20
f 18 20 12
f 19 9 21
f 19 21 20
f 20 21 22
f 20 22 12
f 21 9 23
f 21 23 22
f 22 23 24
f 22 24 12
f 23 9 25
f 23 25 24
f 24 25 26
f 24 26 12
f 25 9 27
f 25 27 26
f 26 27 28
f 26 28 12
f 27 9 29
f 27 29 28
f 28 29 30
f 28 30 12
f 29 9 31
f 29 31 30
f 30 31 32
f 30 32 12
f 31 9 33
f 31 33 32
f 32 33 34
f 32 34 12
f 33 9 10
f 33 10 34
f 34 10 11
f 34 11 12
f 36 38 35
f 39 36 35
f 35 38 37
f 37 39 35
f 36 42 38
f 40 36 39
f 40 42 36
f 38 42 37
f 41 39 37
f 37 42 41
f 41 40 39
f 42 40 41
f 44 46 43
f 47 44 43
f 43 46 45
f 45 47 43
f 44 50 46
f 48 44 47
f 48 50 44
f 46 50 45
f 49 47 45
f 45 50 49
f 49 48 47
f 50 48 49

